<?xml version="1.0" encoding="UTF-8"?><svg id="ELEMENTS" xmlns="http://www.w3.org/2000/svg" xmlns:xlink="http://www.w3.org/1999/xlink" viewBox="0 0 60 60"><defs><style>.cls-1{fill:#fff;}.cls-2{fill:url(#Degradado_sin_nombre_9);}</style><linearGradient id="Degradado_sin_nombre_9" x1="51.21" y1="8.79" x2="8.79" y2="51.21" gradientUnits="userSpaceOnUse"><stop offset="0" stop-color="#006ef5"/><stop offset=".78" stop-color="#2130ae"/><stop offset="1" stop-color="#2b1e99"/></linearGradient></defs><circle class="cls-2" cx="30" cy="30" r="30"/><path class="cls-1" d="M31.67,35.39c0,.91-.18,1.72-.55,2.41-.37,.69-.87,1.27-1.51,1.74-.64,.47-1.38,.82-2.22,1.07-.84,.24-1.74,.37-2.69,.37H14.25V19.34h11.57c.75,0,1.43,.16,2.04,.49,.61,.33,1.13,.75,1.55,1.26,.43,.52,.76,1.11,.99,1.77,.23,.66,.35,1.32,.35,1.99,0,1.06-.26,2.05-.79,2.97-.53,.92-1.3,1.61-2.31,2.06,1.24,.37,2.22,1.02,2.94,1.96,.72,.94,1.08,2.13,1.08,3.55Zm-13.21-12.45v5.45h5.6c.71,0,1.31-.24,1.81-.73,.5-.49,.75-1.16,.75-2.01s-.23-1.49-.69-1.98c-.46-.49-1.02-.73-1.69-.73h-5.79Zm8.98,11.66c0-.39-.07-.76-.2-1.11-.13-.35-.31-.66-.53-.93-.22-.26-.49-.47-.79-.62-.3-.15-.64-.23-1-.23h-6.45v5.69h6.24c.39,0,.75-.07,1.08-.21,.34-.14,.62-.34,.87-.59,.24-.25,.44-.55,.58-.9,.14-.34,.21-.71,.21-1.1Z"/><path class="cls-1" d="M40.77,40.96c-1.24,0-2.36-.21-3.36-.63-1.99-.85-3.39-2.27-4.2-4.26-.38-.96-.58-1.98-.58-3.04s.19-2.14,.56-3.11c.8-2.02,2.2-3.46,4.2-4.32,1.01-.43,2.15-.65,3.41-.65s2.38,.22,3.38,.65c3.27,1.42,4.8,4.59,4.66,8.02-.01,.24-.03,.43-.07,.59h-11.95c.06,.61,.21,1.15,.44,1.62,.24,.47,.54,.88,.91,1.21,.37,.33,.8,.59,1.27,.77,.47,.18,.96,.27,1.48,.27,.79,0,1.53-.19,2.23-.58,.7-.38,1.18-.89,1.43-1.52l3.39,.94c-.57,1.18-1.48,2.15-2.73,2.91-1.25,.76-2.74,1.14-4.47,1.14Zm4.01-9.32c-.1-1.16-.53-2.09-1.28-2.79-.76-.7-1.68-1.05-2.76-1.05-.53,0-1.03,.09-1.49,.28-.46,.19-.87,.45-1.22,.78-.35,.33-.64,.74-.87,1.21-.23,.47-.36,.99-.4,1.56h8.02Z"/><path class="cls-1" d="M35.57,20.37h10.34v2.57h-10.34v-2.57Z"/></svg>