<?xml version="1.0" encoding="UTF-8"?><svg id="ELEMENTS" xmlns="http://www.w3.org/2000/svg" viewBox="0 0 60 46.18"><defs><style>.cls-1{fill:#337fff;}</style></defs><path class="cls-1" d="M4.47,.64L25.32,24.3c1.18,1.34,2.89,2.12,4.69,2.12s3.5-.77,4.69-2.12L55.17,1.05c.17-.19,.37-.34,.58-.46-.87-.38-1.83-.59-2.83-.59H7.08c-.96,0-1.88,.19-2.72,.54,.03,.03,.07,.06,.11,.1Z"/><path class="cls-1" d="M58.91,3.32c-.09,.24-.22,.47-.4,.67l-20.49,23.25c-2.03,2.3-4.95,3.62-8.02,3.62s-5.99-1.32-8.02-3.62L1.13,3.58s-.07-.1-.11-.15c-.64,1.07-1.02,2.31-1.02,3.65V39.1c0,3.91,3.17,7.08,7.08,7.08H52.92c3.91,0,7.08-3.17,7.08-7.08V7.08c0-1.38-.4-2.67-1.09-3.76Z"/></svg>