<?xml version="1.0" encoding="UTF-8"?><svg id="ELEMENTS" xmlns="http://www.w3.org/2000/svg" xmlns:xlink="http://www.w3.org/1999/xlink" viewBox="0 0 60 60"><defs><style>.cls-1{fill:#fff;}.cls-2{fill:url(#linear-gradient);}</style><linearGradient id="linear-gradient" x1="8.79" y1="8.79" x2="51.21" y2="51.21" gradientUnits="userSpaceOnUse"><stop offset="0" stop-color="#4676ed"/><stop offset=".19" stop-color="#436de4"/><stop offset=".49" stop-color="#3b54cd"/><stop offset=".87" stop-color="#2f2da8"/><stop offset="1" stop-color="#2b1e99"/></linearGradient></defs><path class="cls-2" d="M60,30C60,13.43,46.57,0,30,0S0,13.43,0,30c0,14.97,10.97,27.38,25.31,29.64v-20.96h-7.62v-8.67h7.62v-6.61c0-7.52,4.48-11.67,11.33-11.67,3.28,0,6.72,.59,6.72,.59v7.38h-3.78c-3.73,0-4.89,2.31-4.89,4.69v5.63h8.32l-1.33,8.67h-6.99v20.96c14.34-2.25,25.31-14.66,25.31-29.64Z"/><path class="cls-1" d="M41.68,38.67l1.33-8.67h-8.32v-5.63c0-2.37,1.16-4.69,4.89-4.69h3.78v-7.38s-3.43-.59-6.72-.59c-6.85,0-11.33,4.15-11.33,11.67v6.61h-7.62v8.67h7.62v20.96c1.53,.24,3.09,.36,4.69,.36s3.16-.12,4.69-.36v-20.96h6.99Z"/></svg>