<?xml version="1.0" encoding="UTF-8"?><svg id="ELEMENTS" xmlns="http://www.w3.org/2000/svg" xmlns:xlink="http://www.w3.org/1999/xlink" viewBox="0 0 60 60"><defs><style>.cls-1{fill:#fff;}.cls-2{fill:url(#Degradado_sin_nombre_10);}</style><linearGradient id="Degradado_sin_nombre_10" x1="51.21" y1="8.79" x2="8.79" y2="51.21" gradientUnits="userSpaceOnUse"><stop offset="0" stop-color="#007ab5"/><stop offset="1" stop-color="#0046e5"/></linearGradient></defs><circle class="cls-2" cx="30" cy="30" r="30"/><path class="cls-1" d="M17.42,24.41h5.81v18.66h-5.81V24.41Zm2.91-9.28c1.86,0,3.36,1.51,3.36,3.36s-1.51,3.37-3.36,3.37-3.37-1.51-3.37-3.37,1.51-3.36,3.37-3.36"/><path class="cls-1" d="M26.87,24.41h5.57v2.55h.08c.78-1.47,2.67-3.02,5.49-3.02,5.87,0,6.96,3.86,6.96,8.89v10.24h-5.8v-9.07c0-2.17-.04-4.95-3.02-4.95s-3.48,2.36-3.48,4.79v9.23h-5.8V24.41Z"/></svg>