<?xml version="1.0" encoding="UTF-8"?><svg id="ELEMENTS" xmlns="http://www.w3.org/2000/svg" xmlns:xlink="http://www.w3.org/1999/xlink" viewBox="0 0 60 60"><defs><style>.cls-1,.cls-2{fill:#fff;}.cls-2{fill-rule:evenodd;}.cls-3{fill:url(#Degradado_sin_nombre_8);}</style><linearGradient id="Degradado_sin_nombre_8" x1="51.21" y1="8.79" x2="8.79" y2="51.21" gradientTransform="translate(13.76 -9.2) rotate(22.5)" gradientUnits="userSpaceOnUse"><stop offset="0" stop-color="#60fc7c"/><stop offset="1" stop-color="#4ab161"/></linearGradient></defs><circle class="cls-3" cx="30" cy="30" r="30" transform="translate(-9.2 13.76) rotate(-22.5)"/><path class="cls-1" d="M13.79,46.98l2.5-9.33c-1.42-2.56-2.16-5.42-2.16-8.32,0-9.5,7.73-17.23,17.23-17.23s17.23,7.73,17.23,17.23-7.73,17.23-17.23,17.23c-2.85,0-5.67-.72-8.19-2.09l-9.38,2.51Zm9.85-6.01l.59,.35c2.17,1.29,4.64,1.98,7.13,1.98,7.71,0,13.97-6.27,13.97-13.97s-6.27-13.97-13.97-13.97-13.97,6.27-13.97,13.97c0,2.54,.71,5.05,2.04,7.25l.36,.6-1.4,5.21,5.24-1.4Z"/><path class="cls-2" d="M37.77,31.72c-.71-.42-1.63-.9-2.47-.56-.64,.26-1.05,1.27-1.47,1.78-.21,.26-.47,.3-.79,.17-2.41-.96-4.25-2.56-5.58-4.78-.22-.34-.18-.62,.09-.93,.4-.47,.9-1.01,1.01-1.65,.11-.64-.19-1.38-.45-1.95-.34-.72-.71-1.76-1.44-2.17-.67-.38-1.55-.17-2.14,.32-1.03,.84-1.52,2.14-1.51,3.44,0,.37,.05,.74,.14,1.09,.21,.86,.6,1.65,1.05,2.41,.34,.57,.7,1.13,1.09,1.66,1.29,1.75,2.89,3.27,4.74,4.4,.93,.57,1.92,1.06,2.96,1.41,1.16,.38,2.19,.78,3.44,.54,1.31-.25,2.6-1.06,3.12-2.32,.15-.37,.23-.79,.14-1.18-.18-.82-1.28-1.3-1.94-1.7Z"/></svg>