<?xml version="1.0" encoding="UTF-8"?><svg id="ELEMENTS" xmlns="http://www.w3.org/2000/svg" viewBox="0 0 46.51 59.82"><defs><style>.cls-1{fill:red;}</style></defs><path class="cls-1" d="M23.25,59.82h0c-.58,0-1.13-.24-1.52-.66-.89-.95-21.73-23.53-21.73-35.9S10.43,0,23.25,0s23.25,10.43,23.25,23.25S25.66,58.2,24.78,59.15c-.39,.42-.94,.66-1.52,.66Zm0-55.66C12.72,4.16,4.16,12.72,4.16,23.25c0,8.21,12.62,24.1,19.09,31.39,6.48-7.29,19.09-23.18,19.09-31.39,0-10.53-8.57-19.09-19.09-19.09Z"/><path class="cls-1" d="M23.25,32.71c-5.77,0-10.47-4.7-10.47-10.47s4.7-10.47,10.47-10.47,10.47,4.7,10.47,10.47-4.7,10.47-10.47,10.47Zm0-16.78c-3.48,0-6.31,2.83-6.31,6.31s2.83,6.31,6.31,6.31,6.31-2.83,6.31-6.31-2.83-6.31-6.31-6.31Z"/></svg>