<?xml version="1.0" encoding="UTF-8"?><svg id="ELEMENTS" xmlns="http://www.w3.org/2000/svg" xmlns:xlink="http://www.w3.org/1999/xlink" viewBox="0 0 60 60"><defs><style>.cls-1{fill:#fff;}.cls-2{fill:url(#Degradado_sin_nombre_3);}</style><linearGradient id="Degradado_sin_nombre_3" x1="51.21" y1="8.79" x2="8.79" y2="51.21" gradientUnits="userSpaceOnUse"><stop offset="0" stop-color="#fbe18a"/><stop offset=".21" stop-color="#fcbb45"/><stop offset=".38" stop-color="#f75274"/><stop offset=".52" stop-color="#d53692"/><stop offset=".74" stop-color="#8f39ce"/><stop offset="1" stop-color="#5b4fe9"/></linearGradient></defs><circle class="cls-2" cx="30" cy="30" r="30"/><g><path class="cls-1" d="M39.31,18.65c-1.14,0-2.06,.92-2.06,2.06s.92,2.06,2.06,2.06,2.06-.92,2.06-2.06-.92-2.06-2.06-2.06Z"/><path class="cls-1" d="M30.14,21.3c-4.78,0-8.66,3.89-8.66,8.66s3.89,8.66,8.66,8.66,8.66-3.89,8.66-8.66-3.89-8.66-8.66-8.66Zm0,14.21c-3.06,0-5.55-2.49-5.55-5.55s2.49-5.55,5.55-5.55,5.55,2.49,5.55,5.55-2.49,5.55-5.55,5.55Z"/><path class="cls-1" d="M37.02,47.55h-14.04c-5.83,0-10.57-4.74-10.57-10.57v-14.04c0-5.83,4.74-10.57,10.57-10.57h14.04c5.83,0,10.57,4.74,10.57,10.57v14.04c0,5.83-4.74,10.57-10.57,10.57ZM22.98,15.68c-4,0-7.26,3.25-7.26,7.26v14.04c0,4,3.25,7.26,7.26,7.26h14.04c4,0,7.26-3.25,7.26-7.26v-14.04c0-4-3.26-7.26-7.26-7.26h-14.04Z"/></g></svg>